<?xml version="1.0" encoding="utf-8"?>
<!-- Generator: Adobe Illustrator 21.1.0, SVG Export Plug-In . SVG Version: 6.00 Build 0)  -->
<svg version="1.1" id="Layer_1" xmlns="http://www.w3.org/2000/svg" xmlns:xlink="http://www.w3.org/1999/xlink" x="0px" y="0px"
	 viewBox="0 0 90 90" style="enable-background:new 0 0 90 90;" xml:space="preserve">
<style type="text/css">
	.st0{clip-path:url(#SVGID_2_);fill:#55494B;}
	.st1{clip-path:url(#SVGID_4_);fill:#55494B;}
	.st2{clip-path:url(#SVGID_6_);fill:#55494B;}
	.st3{clip-path:url(#SVGID_8_);fill:#55494B;}
	.st4{fill:#FFFFFF;}
</style>
<g id="Layer_2">
	<rect x="29.7" y="6.3" transform="matrix(0.7071 -0.7071 0.7071 0.7071 -2.1047 38.1056)" width="30.5" height="30.5"/>
	<rect x="29.7" y="53.2" transform="matrix(0.7071 -0.7071 0.7071 0.7071 -35.2456 51.8642)" width="30.5" height="30.5"/>
	<rect x="53.2" y="29.7" transform="matrix(0.7071 -0.7071 0.7071 0.7071 -11.7459 61.5347)" width="30.5" height="30.5"/>
	<rect x="6.3" y="29.7" transform="matrix(0.7071 -0.7071 0.7071 0.7071 -25.5044 28.3937)" width="30.5" height="30.5"/>
</g>
<g id="Layer_2_circle">
	<g id="Layer_3">
	</g>
	<g id="Layer_3_circle">
	</g>
	<g id="Layer_3_circle_2">
	</g>
	<g id="Layer_3_circle_3">
	</g>
	<g>
		<g>
			<defs>
				
					<rect id="SVGID_1_" x="29.7" y="6.3" transform="matrix(0.7071 -0.7071 0.7071 0.7071 -2.1047 38.1056)" width="30.5" height="30.5"/>
			</defs>
			<clipPath id="SVGID_2_">
				<use xlink:href="#SVGID_1_"  style="overflow:visible;"/>
			</clipPath>
			<circle class="st0" cx="44.6" cy="45.5" r="18.8"/>
		</g>
	</g>
	<g>
		<g>
			<defs>
				
					<rect id="SVGID_3_" x="29.7" y="53.2" transform="matrix(0.7071 -0.7071 0.7071 0.7071 -35.2456 51.8642)" width="30.5" height="30.5"/>
			</defs>
			<clipPath id="SVGID_4_">
				<use xlink:href="#SVGID_3_"  style="overflow:visible;"/>
			</clipPath>
			<circle class="st1" cx="44.6" cy="45.5" r="18.8"/>
		</g>
	</g>
	<g>
		<g>
			<defs>
				
					<rect id="SVGID_5_" x="53.2" y="29.7" transform="matrix(0.7071 -0.7071 0.7071 0.7071 -11.7459 61.5347)" width="30.5" height="30.5"/>
			</defs>
			<clipPath id="SVGID_6_">
				<use xlink:href="#SVGID_5_"  style="overflow:visible;"/>
			</clipPath>
			<circle class="st2" cx="44.6" cy="45.5" r="18.8"/>
		</g>
	</g>
	<g>
		<g>
			<defs>
				
					<rect id="SVGID_7_" x="6.3" y="29.7" transform="matrix(0.7071 -0.7071 0.7071 0.7071 -25.5044 28.3937)" width="30.5" height="30.5"/>
			</defs>
			<clipPath id="SVGID_8_">
				<use xlink:href="#SVGID_7_"  style="overflow:visible;"/>
			</clipPath>
			<circle class="st3" cx="44.6" cy="45.5" r="18.8"/>
		</g>
	</g>
</g>
<g id="Layer_8">
	<path class="st4" d="M48.1,42.2c1.7,0.1,3-0.2,3.8-0.6c1.4-0.8,2.2-2.1,2.2-3.7c0-1.2-0.4-2.3-1.2-3.1c-0.9-0.8-2-1.2-3.4-1.3
		c-1.9,0-3.5,0.5-4.9,1.5s-2.2,2.4-2.4,4l-2.1-0.1c-0.7,0-1.3,0.1-1.7,0.4c-0.4,0.3-0.6,0.7-0.6,1.3c0,0.8,0.5,1.2,1.7,1.2l3.4,0.1
		c0.3,0.7,0.9,1.5,1.6,2.4c1.1,1.3,1.8,2.2,2.1,2.9c0.3,0.6,0.5,1.3,0.5,2c0,1.2-0.5,2.2-1.4,3s-1.9,1.2-3,1.2c-1,0-1.9-0.4-2.5-1
		c-0.7-0.7-1-1.5-0.9-2.5c0-0.6,0.2-1.3,0.6-1.9c0.4-0.6,0.9-1.1,1.5-1.5l1-0.6c0.7-0.4,1-0.8,1-1.4c0-0.4-0.1-0.7-0.4-1
		c-0.3-0.3-0.6-0.4-1.1-0.4c-0.9,0-1.8,0.3-2.9,1.1c-2,1.5-3,3.3-3.1,5.6c-0.1,1.9,0.5,3.4,1.7,4.7c1.2,1.2,2.8,1.9,4.7,1.9
		c2.5,0.1,4.6-0.7,6.2-2.5c1.2-1.3,1.8-2.7,1.8-4.5c0.1-1.8-0.5-3.5-1.8-5.1l-0.6-0.8L46.8,42L48.1,42.2z M46.6,37.2
		c0.8-0.5,1.6-0.8,2.5-0.8c0.6,0,1,0.1,1.4,0.4c0.3,0.2,0.5,0.6,0.5,0.9c0,1-0.9,1.4-2.6,1.4l-3-0.1C45.5,38.4,45.9,37.8,46.6,37.2z
		"/>
</g>
</svg>
